<svg xmlns="http://www.w3.org/2000/svg" viewBox="0 0 1280 720" role="img" aria-labelledby="title desc">
  <title id="title">SupperTable logo</title>
  <desc id="desc">SupperTable horizontal logo with a warm S monogram and verified home dining tagline.</desc>
  <defs>
    <linearGradient id="markBg" x1="130" y1="104" x2="542" y2="560" gradientUnits="userSpaceOnUse">
      <stop offset="0" stop-color="#fff0d2"/>
      <stop offset="0.46" stop-color="#ffb000"/>
      <stop offset="1" stop-color="#d7263d"/>
    </linearGradient>
    <linearGradient id="spark" x1="0" y1="0" x2="1" y2="1">
      <stop offset="0" stop-color="#00a7a5"/>
      <stop offset="1" stop-color="#168f5a"/>
    </linearGradient>
    <filter id="softShadow" x="-20%" y="-20%" width="140%" height="140%">
      <feDropShadow dx="0" dy="28" stdDeviation="24" flood-color="#261109" flood-opacity="0.22"/>
    </filter>
  </defs>

  <rect width="1280" height="720" fill="#fffdf8"/>
  <g filter="url(#softShadow)">
    <rect x="126" y="96" width="480" height="480" rx="112" fill="#17120f"/>
    <rect x="154" y="124" width="424" height="424" rx="92" fill="url(#markBg)"/>
    <text x="363" y="462"
      text-anchor="middle"
      font-family="Inter, Avenir Next, Segoe UI, Arial, sans-serif"
      font-size="372"
      font-weight="900"
      letter-spacing="0"
      fill="#fffdf8">S</text>
    <path d="M225 500c78 47 219 47 298 0"
      fill="none"
      stroke="#17120f"
      stroke-width="26"
      stroke-linecap="round"/>
    <circle cx="232" cy="288" r="19" fill="#d7263d"/>
    <circle cx="514" cy="372" r="18" fill="#168f5a"/>
    <path d="M505 210l13 34 35 13-35 13-13 35-13-35-35-13 35-13z" fill="url(#spark)"/>
  </g>

  <g transform="translate(690 234)">
    <text x="0" y="102"
      font-family="Inter, Avenir Next, Segoe UI, Arial, sans-serif"
      font-size="92"
      font-weight="850"
      letter-spacing="0"
      fill="#17120f">SupperTable</text>
    <rect x="3" y="135" width="392" height="8" rx="4" fill="#ffb000"/>
    <text x="0" y="198"
      font-family="Inter, Avenir Next, Segoe UI, Arial, sans-serif"
      font-size="28"
      font-weight="760"
      letter-spacing="4"
      fill="#5d5047">VERIFIED HOME DINING</text>
  </g>
</svg>
